<?xml version="1.0" encoding="UTF-8" standalone="no"?>
<svg
   viewBox="0 0 400 400"
   version="1.1"
   id="svg-symptom-flow"
   xmlns="http://www.w3.org/2000/svg"
   xmlns:svg="http://www.w3.org/2000/svg">
  <defs
     id="defs55" />
  <circle
     cx="200"
     cy="200"
     r="150"
     fill="none"
     stroke="#ffffff"
     stroke-width="1"
     stroke-dasharray="1 8"
     opacity="0.14"
     id="circle2" />
  <!-- phone, upper-left -->
  <rect
     x="70"
     y="130"
     width="70"
     height="122"
     rx="14"
     fill="none"
     stroke="#ffffff"
     stroke-width="2.25"
     id="rect4" />
  <line
     x1="70"
     y1="222"
     x2="140"
     y2="222"
     stroke="#ffffff"
     stroke-width="1.5"
     opacity="0.6"
     id="line6" />
  <circle
     cx="105"
     cy="237"
     r="4"
     fill="none"
     stroke="#ffffff"
     stroke-width="1.5"
     opacity="0.7"
     id="circle8" />
  <path
     d="M92,164 L92,196 M105,158 L105,202 M118,170 L118,190"
     stroke="#ffffff"
     stroke-width="2"
     stroke-linecap="round"
     opacity="0.55"
     id="path10" />
  <!-- speech bubble above phone -->
  <rect
     x="60"
     y="60"
     width="92"
     height="46"
     rx="16"
     fill="none"
     stroke="#ffffff"
     stroke-width="2"
     id="rect12" />
  <path
     d="M92,106 L84,122 L108,106 Z"
     fill="none"
     stroke="#ffffff"
     stroke-width="2"
     stroke-linejoin="round"
     id="path14" />
  <circle
     cx="84"
     cy="83"
     r="3.5"
     fill="#ffffff"
     opacity="0.8"
     id="circle16" />
  <circle
     cx="100"
     cy="83"
     r="3.5"
     fill="#ffffff"
     opacity="0.8"
     id="circle18" />
  <circle
     cx="116"
     cy="83"
     r="3.5"
     fill="#E0475A"
     id="circle20" />
  <!-- connector to review badge -->
  <path
     d="M140,150 L214,124"
     stroke="#ffffff"
     stroke-width="1.4"
     stroke-dasharray="1 5"
     opacity="0.55"
     fill="none"
     id="path22" />
  <circle
     cx="138"
     cy="151"
     r="2.75"
     fill="none"
     stroke="#ffffff"
     stroke-width="1.4"
     id="circle24" />
  <circle
     cx="216"
     cy="123"
     r="2.75"
     fill="none"
     stroke="#ffffff"
     stroke-width="1.4"
     id="circle26" />
  <!-- review badge (ring + pulse line + confirmed arc) -->
  <circle
     cx="270"
     cy="150"
     r="54"
     fill="none"
     stroke="#ffffff"
     stroke-width="2.25"
     id="circle28" />
  <path
     d="M270,96 A54,54 0 0 1 320,168"
     fill="none"
     stroke="#2F9E5B"
     stroke-width="2.5"
     opacity="0.9"
     id="path30" />
  <path
     d="M240,150 H254 L260,132 L270,168 L278,140 H284 H300"
     fill="none"
     stroke="#ffffff"
     stroke-width="2.25"
     stroke-linecap="round"
     stroke-linejoin="round"
     id="path32" />
  <!-- connector to medicine -->
  <path
     d="M254,196 L206,268"
     stroke="#ffffff"
     stroke-width="1.4"
     stroke-dasharray="1 5"
     opacity="0.55"
     fill="none"
     id="path34" />
  <circle
     cx="256"
     cy="194"
     r="2.75"
     fill="none"
     stroke="#ffffff"
     stroke-width="1.4"
     id="circle36" />
  <circle
     cx="204"
     cy="271"
     r="2.75"
     fill="none"
     stroke="#ffffff"
     stroke-width="1.4"
     id="circle38" />
  <!-- medicine capsule -->
  <g
     transform="rotate(-28 176 312)"
     id="g46">
    <rect
       x="136"
       y="296"
       width="80"
       height="30"
       rx="15"
       fill="none"
       stroke="#ffffff"
       stroke-width="2.25"
       id="rect40" />
    <line
       x1="176"
       y1="296"
       x2="176"
       y2="326"
       stroke="#ffffff"
       stroke-width="2.25"
       id="line42" />
    <circle
       cx="150"
       cy="311"
       r="3.5"
       fill="#E0475A"
       id="circle44" />
  </g>
  <circle
     cx="330"
     cy="70"
     r="2.5"
     fill="#ffffff"
     opacity="0.3"
     id="circle48" />
  <circle
     cx="60"
     cy="340"
     r="2.5"
     fill="#ffffff"
     opacity="0.25"
     id="circle50" />
</svg>
