<?xml version="1.0" encoding="UTF-8" standalone="no"?>
<svg
   viewBox="0 0 480 480"
   version="1.1"
   id="svg-symptom-hero"
   xmlns="http://www.w3.org/2000/svg"
   xmlns:svg="http://www.w3.org/2000/svg">
  <defs
     id="defs-sh">
    <linearGradient
       id="badgeGradientHero"
       x1="0"
       y1="0"
       x2="1"
       y2="1">
      <stop
         offset="0"
         stop-color="#0E7C86"
         id="sh-stop1" />
      <stop
         offset="1"
         stop-color="#1E6FD9"
         id="sh-stop2" />
    </linearGradient>
    <clipPath
       id="pillClipLeftHero">
      <rect
         x="245"
         y="328"
         width="45"
         height="34"
         id="sh-rect1" />
    </clipPath>
  </defs>
  <!-- decorative texture dots -->
  <circle
     cx="36"
     cy="70"
     r="4"
     fill="#ffffff"
     opacity="0.35"
     id="circle8" />
  <circle
     cx="64"
     cy="400"
     r="5"
     fill="#ffffff"
     opacity="0.3"
     id="circle10" />
  <circle
     cx="26"
     cy="250"
     r="3"
     fill="#ffffff"
     opacity="0.3"
     id="circle12" />
  <circle
     cx="446"
     cy="70"
     r="4"
     fill="#ffffff"
     opacity="0.3"
     id="circle14" />
  <circle
     cx="128"
     cy="440"
     r="4"
     fill="#ffffff"
     opacity="0.3"
     id="circle16" />
  <!-- person: head -->
  <circle
     cx="130"
     cy="150"
     r="34"
     fill="#ffffff"
     id="circle18" />
  <!-- person: torso -->
  <rect
     x="85"
     y="188"
     width="90"
     height="170"
     rx="45"
     fill="#ffffff"
     opacity="0.96"
     id="rect20" />
  <!-- person: shirt accent -->
  <rect
     x="102"
     y="210"
     width="56"
     height="96"
     rx="20"
     fill="#1E6FD9"
     id="rect22" />
  <!-- person: raised arm holding mic -->
  <path
     d="M168,220 Q206,196 224,176"
     stroke="#ffffff"
     stroke-width="26"
     stroke-linecap="round"
     fill="none"
     id="path24" />
  <!-- hand -->
  <circle
     cx="226"
     cy="176"
     r="14"
     fill="#ffffff"
     id="circle26" />
  <!-- microphone (held near mouth height) -->
  <g
     id="g40">
    <rect
       x="216"
       y="118"
       width="30"
       height="52"
       rx="15"
       fill="#0E7C86"
       id="rect28" />
    <line
       x1="223"
       y1="130"
       x2="239"
       y2="130"
       stroke="#ffffff"
       stroke-width="3"
       stroke-linecap="round"
       opacity="0.85"
       id="line30" />
    <line
       x1="223"
       y1="140"
       x2="239"
       y2="140"
       stroke="#ffffff"
       stroke-width="3"
       stroke-linecap="round"
       opacity="0.85"
       id="line32" />
    <line
       x1="223"
       y1="150"
       x2="239"
       y2="150"
       stroke="#ffffff"
       stroke-width="3"
       stroke-linecap="round"
       opacity="0.85"
       id="line34" />
    <path
       d="M209,166 Q231,182 253,166"
       stroke="#ffffff"
       stroke-width="4"
       stroke-linecap="round"
       fill="none"
       id="path36" />
    <line
       x1="231"
       y1="182"
       x2="231"
       y2="196"
       stroke="#ffffff"
       stroke-width="4"
       stroke-linecap="round"
       id="line38" />
  </g>
  <!-- soundwave arcs, radiating from mic -->
  <path
     d="M258,100 Q276,132 258,166"
     stroke="#ffffff"
     stroke-width="3.4"
     stroke-linecap="round"
     fill="none"
     opacity="0.55"
     id="path42" />
  <path
     d="M274,86 Q302,132 274,180"
     stroke="#ffffff"
     stroke-width="3.4"
     stroke-linecap="round"
     fill="none"
     opacity="0.32"
     id="path44" />
  <!-- connector: mic to review badge -->
  <path
     d="M296,110 Q346,90 372,138"
     stroke="#ffffff"
     stroke-width="3"
     stroke-dasharray="2 9"
     stroke-linecap="round"
     fill="none"
     opacity="0.85"
     id="path46" />
  <!-- review badge (AI + doctor review) -->
  <circle
     cx="390"
     cy="165"
     r="46"
     fill="url(#badgeGradientHero)"
     id="circle48" />
  <path
     d="M364,167 H376 L382,147 L390,183 L396,155 H402 H416"
     fill="none"
     stroke="#ffffff"
     stroke-width="3.4"
     stroke-linecap="round"
     stroke-linejoin="round"
     id="path50" />
  <path
     d="M405,141 V149 M401,145 H409"
     stroke="#ffffff"
     stroke-width="3.4"
     stroke-linecap="round"
     id="path52" />
  <!-- connector: badge to medicine -->
  <path
     d="M382,209 Q338,262 302,312"
     stroke="#ffffff"
     stroke-width="3"
     stroke-dasharray="2 9"
     stroke-linecap="round"
     fill="none"
     opacity="0.85"
     id="path54" />
  <!-- medicine capsule -->
  <g
     transform="rotate(-32 290 345)"
     id="g60">
    <rect
       x="245"
       y="328"
       width="90"
       height="34"
       rx="17"
       fill="#E0475A"
       id="rect56" />
    <rect
       x="245"
       y="328"
       width="90"
       height="34"
       rx="17"
       fill="#ffffff"
       clip-path="url(#pillClipLeftHero)"
       id="rect58" />
  </g>
</svg>
