<?xml version="1.0" encoding="UTF-8" standalone="no"?>
<svg
   viewBox="0 0 160 160"
   version="1.1"
   id="svg-calcium"
   xmlns="http://www.w3.org/2000/svg"
   xmlns:svg="http://www.w3.org/2000/svg">
  <defs
     id="defs13" />
  <circle
     cx="80"
     cy="80"
     r="66"
     fill="none"
     stroke="#6E7A82"
     stroke-width="1"
     stroke-dasharray="1 6"
     opacity="0.14"
     id="circle2" />
  <path
     d="M50,50 C40,50 34,60 40,68 C34,76 40,86 50,84 L50,96 C40,96 34,106 40,114 C34,122 40,132 50,130 L110,130 C120,130 126,120 120,112 C126,104 120,94 110,96 L110,84 C120,84 126,74 120,66 C126,58 120,48 110,50 Z"
     fill="#E7E4DD"
     stroke="#6E7A82"
     stroke-width="3"
     stroke-linejoin="round"
     id="path4" />
  <circle
     cx="80"
     cy="90"
     r="20"
     fill="none"
     stroke="#6E7A82"
     stroke-width="2"
     opacity="0.6"
     id="circle6" />
  <text
     x="80"
     y="140"
     text-anchor="middle"
     font-family="sans-serif"
     font-size="12"
     font-weight="700"
     fill="#4E5A62"
     id="text8">Calcium</text>
</svg>
